<mxfile host="app.diagrams.net" modified="2024-03-08T05:24:02.486Z" agent="Mozilla/5.0 (Macintosh; Intel Mac OS X 10_15_7) AppleWebKit/537.36 (KHTML, like Gecko) Chrome/122.0.0.0 Safari/537.36" version="24.0.2" etag="VPWVX5VPRlDWEsQujoR4" type="github">
  <diagram name="Page-1" id="hlrFi7RLf0j64AN272LD">
    <mxGraphModel>
      <root>
        <mxCell id="0" />
        <mxCell id="1" parent="0" />
      </root>
    </mxGraphModel>
  </diagram>
</mxfile>
